<svg width="100" height="65" viewBox="0 0 100 65" fill="none" xmlns="http://www.w3.org/2000/svg">
<path d="M52.7778 53.8705C52.7778 56.6529 47.9917 62.2177 43.5167 62.2177C39.0445 62.2177 38.8889 58.4809 38.8889 53.8705C38.8889 49.2602 42.5167 45.5234 46.9889 45.5234C51.4639 45.5234 52.7778 49.2602 52.7778 53.8705ZM83.3334 53.8705C83.3334 56.6529 78.5472 62.2177 74.0722 62.2177C69.6 62.2177 69.4445 58.4809 69.4445 53.8705C69.4445 49.2602 73.0722 45.5234 77.5445 45.5234C82.0195 45.5234 83.3334 49.2602 83.3334 53.8705Z" fill="#055951"/>
<path d="M100 34.394C100 17.6998 91.1889 8.87687 83.3333 1.00555C80.5556 -1.77682 79.4472 1.89869 80.5556 3.78792C81.9667 6.18632 88.8889 26.0469 75 26.0469H69.4444C55.5556 26.0469 52.3 22.7859 44.4444 14.9174C31.9444 2.39673 25 14.9174 19.4444 14.9174C2.77778 14.9174 0 9.87295 0 20.4821C0 28.8292 8.33333 31.6116 16.6667 31.6116C25 31.6116 25 34.394 30.5556 42.7411C33.5306 47.2095 38.4333 51.6752 44.5083 54.3018C45.1528 57.4153 52.2139 65 56.4833 65C60.9556 65 61.1111 61.2633 61.1111 56.6529H75C75.0944 56.6529 75.1833 56.6251 75.2806 56.6251C76.0889 56.639 76.9083 56.6529 77.7778 56.6529C77.7778 59.4353 82.5639 65 87.0389 65C91.5111 65 91.6667 61.2633 91.6667 56.6529C91.6667 55.8126 91.5083 55.0196 91.2861 54.2573C96.1444 51.6252 100 46.1049 100 34.394Z" fill="#15936D"/>
<path d="M16.6667 26.0469C15.5861 26.0469 13.8889 23.2645 13.8889 23.2645H19.4444C19.4444 23.2645 17.7472 26.0469 16.6667 26.0469ZM11.1111 27.3518C10.0305 27.3518 8.33333 23.2645 8.33333 23.2645H13.8889C13.8889 23.2645 12.1917 27.3518 11.1111 27.3518ZM5.55555 28.8292C4.47499 28.8292 2.77777 23.2645 2.77777 23.2645H8.33333C8.33333 23.2645 6.6361 28.8292 5.55555 28.8292Z" fill="white"/>
<ellipse cx="32.1693" cy="17.1182" rx="2.01058" ry="2.0139" fill="black"/>
</svg>
